name processed_emg_signals
nRows=91
nColumns=7
 
endheader
time	RGLTMED	RRF	RADDLONG	RST	RTA	RGM
0.97	0.195064400955107	0.025041115430763	0.0237998285663782	0.358528580598083	0.0389539030666184	0.35618622435395
0.971	0.1966746730841276	0.0246977448957468	0.0236122513056086	0.3555436499238475	0.038615136340497	0.352967577796339
0.972	0.1983747399734362	0.0243674472898422	0.0234292306491636	0.3525389588474371	0.0383063147931674	0.3497043236650965
0.973	0.2001632420398301	0.0240500463450094	0.0232507219340828	0.3495151409137539	0.0380261817401375	0.3463999483203221
0.974	0.2020387602911246	0.0237453611822947	0.0230766774532562	0.3464728068518938	0.037773507123382	0.3430579483346136
0.975	0.2039998177690239	0.0234532066983611	0.0229070466151585	0.3434125453408364	0.0375470883929058	0.3396818261577447
0.976	0.2060448810076085	0.0231733939468371	0.0227417761034847	0.3403349238601023	0.0373457513350923	0.3362750858269274
0.977	0.2081723615056138	0.022905730513912	0.0225808100364122	0.3372404896259847	0.0371683508478471	0.3328412287301494
0.978	0.2103806172103666	0.0226500208875722	0.0224240901252	0.3341297706128603	0.0370137716625859	0.3293837494293648
0.979	0.2126679540108637	0.0224060668199672	0.0222715558317978	0.3310032766579759	0.0368809290132521	0.3259061315497474
0.98	0.2150326272370619	0.0221736676823989	0.0221231445251398	0.3278615006470644	0.0367687692525987	0.3224118437406985
0.981	0.2174728431622258	0.0219526208125069	0.0219787916357495	0.324704919777258	0.0366762704160861	0.3189043357137272
0.982	0.2199867605050132	0.0217427218532751	0.0218384308083315	0.321533996892918	0.0366024427338144	0.3153870343618034
0.983	0.2225724919280471	0.0215437650834804	0.0217019940520022	0.3183491818893273	0.0365463290909553	0.3118633399645916
0.984	0.2252281055301649	0.0213555437391886	0.021569411887825	0.3151509131784917	0.0365070054372336	0.308336622483738
0.985	0.2279516263302546	0.021177850325937	0.021440613493347	0.3119396192106766	0.0364835811460118	0.3048102179524365
0.986	0.2307410377416175	0.0210104769211564	0.0213155268437955	0.3087157200447462	0.0364751993235629	0.3012874249632031
0.987	0.2335942830366345	0.0208532154664475	0.0211940788496176	0.3054796289599574	0.0364810370691036	0.2977715012575433
0.988	0.2365092668020431	0.0207058580492209	0.0210761954900654	0.3022317541013671	0.0365003056860873	0.2942656604208039
0.989	0.2394838563854707	0.0205681971732202	0.0209618019426001	0.2989725001505472	0.0365322508453136	0.290773068685202
0.99	0.2425158833338116	0.020440026017375	0.0208508227079707	0.2957022700125825	0.0365761527003027	0.2872968418437271
0.991	0.2456031448238865	0.0203211386824215	0.0207431817309607	0.2924214665096661	0.0366313259554894	0.2838400422772434
0.992	0.2487434050855672	0.0202113304247598	0.0206388025168737	0.2891304940709026	0.03669711988768	0.2804056760966694
0.993	0.251934396817154	0.0201103978770488	0.0205376082439184	0.2858297604073633	0.0367729183213025	0.276996690401538
0.994	0.2551738225925843	0.0200181392551573	0.0204395218716777	0.2825196781608898	0.0368581395578438	0.2736159706557301
0.995	0.258459356260004	0.0199343545512476	0.0203444662458597	0.2792006665148123	0.0369522362599032	0.2702663381807327
0.996	0.2617886443314043	0.0198588457128327	0.0202523641995511	0.2758731527545887	0.0370546952902315	0.2669505477665383
0.997	0.2651593073631006	0.0197914168078007	0.0201631386511953	0.2725375737666807	0.0371650375061695	0.2636712854001242
0.998	0.2685689413269998	0.0197318741754725	0.0200767126995356	0.2691943774645538	0.0372828175099153	0.2604311661114854
0.999	0.2720151189728549	0.0196800265638235	0.0199930097157417	0.2658440241316913	0.0374076233550603	0.2572327319372166
1.0	0.2754953911821818	0.0196356852531099	0.0199119534329472	0.2624869876725751	0.0375390762098458	0.2540784500016181
1.0010000000000001	0.2790072883150867	0.0195986641661363	0.0198334680333783	0.2591237567637313	0.0376768299775791	0.2509707107153537
1.002	0.2825483215518762	0.0195687799654918	0.0197574782332229	0.2557548358981732	0.0378205708746359	0.2479118260914568
1.0030000000000001	0.2861159842318865	0.0195458521380542	0.0196839093653499	0.2523807463180615	0.0379700169666076	0.2449040281783421
1.004	0.289707753192289	0.019529703067099	0.0196126874599979	0.249002026831922	0.0381249176632825	0.2419494676091318
1.0050000000000001	0.2933210901094492	0.019520158092355	0.019543739323459	0.2456192345141602	0.0382850531734453	0.2390502122663587
1.006	0.2969534428450491	0.0195170455583533	0.0194769926148148	0.2422329452858356	0.0384502339207688	0.2362082460609782
1.0070000000000001	0.3006022467989269	0.0195201968513801	0.0194123759206999	0.2388437543767586	0.0386202999223815	0.2334254678247787
1.008	0.3042649262705755	0.0195294464254448	0.019349818828097	0.2354522766699515	0.0387951201319519	0.230703690315553
1.0090000000000001	0.3079388958316778	0.019544631817604	0.0192892519951271	0.232059146930285	0.0389745917492903	0.2280446393348533
1.01	0.3116215617125066	0.0195655936530566	0.0192306072198094	0.2286650199199654	0.0391586394986473	0.2254499529584128
1.0110000000000001	0.3153103232055518	0.0195921756403322	0.0191738175067471	0.225270570404437	0.0393472148779015	0.2229211808794783
1.012	0.3190025740898395	0.019624224556975	0.0191188171316678	0.221876493053014	0.0395402953809018	0.2204597838651998
1.0130000000000001	0.3226957040791711	0.0196615902260306	0.0190655417037284	0.2184835022392195	0.0397378836951482	0.2180671333259422
1.014	0.3263871002969587	0.0197041254837472	0.0190139282254824	0.215092331746256	0.0399400068769443	0.2157445109970287
1.0150000000000001	0.330074148779823	0.0197516861388464	0.0189639151503496	0.2117037343832666	0.0401467155061084	0.2134931087319731
1.016	0.3337542360118253	0.0198041309237623	0.01891544243745	0.2083184815181017	0.0403580828222192	0.2113140284058625
1.0170000000000001	0.3374247504911918	0.0198613214382382	0.0188684516035744	0.2049373625318703	0.0405742038443367	0.2092082819272128
1.018	0.3410830843315044	0.0199231220857085	0.0188228857721227	0.2015611842002256	0.0407951944760275	0.2071767913564146
1.0190000000000001	0.3447266348995935	0.0199894000028922	0.0187786897188072	0.1981907700057325	0.0410211905974409	0.2052203891287768
1.02	0.3483528064926051	0.020060024983057	0.0187358099138988	0.1948269593854025	0.0412523471460902	0.2033398183802417
1.0210000000000001	0.3519590120566522	0.0201348693934567	0.018694194560856	0.1914706069171151	0.041488837187933	0.2015357333738447
1.022	0.3555426749492583	0.0202138080874361	0.0186537936311578	0.1881225814485566	0.0417308509802271	0.1998087000249478
1.0230000000000001	0.3591012307473318	0.0202967183116975	0.0186145588952712	0.184783765172302	0.0419785950275986	0.1981591965231514
1.024	0.362632129101945	0.0203834796092226	0.0185764439496961	0.1814550526508081	0.0422322911326022	0.1965876140486119
1.025	0.3661328356406415	0.0204739737183101	0.0185394042401645	0.1781373497954026	0.0424921754420606	0.1950942575802106
1.026	0.3696008339174907	0.0205680844682586	0.0185033970810404	0.1748315728036148	0.0427584974902937	0.1936793467927364
1.027	0.3730336274106723	0.0206656976721909	0.0184683816710708	0.1715386470593707	0.0430315192403929	0.1923430170399567
1.028	0.3764287415668512	0.0207667010175927	0.0184343191055562	0.1682595060005161	0.0433115141246538	0.1910853204203942
1.029	0.3797837258910712	0.0208709839551286	0.0184011723850687	0.1649950899579305	0.0435987660854031	0.1899062269228787
1.03	0.3830961560800807	0.0209784375862686	0.01836890642078	0.1617463449701167	0.0438935686175668	0.1888056256493456
1.031	0.3863636361962478	0.0210889545502963	0.0183374880365446	0.1585142215768042	0.0441962238143802	0.1877833261129891
1.032	0.38958380087827	0.0212024289111924	0.018306885967861	0.1552996735946934	0.0445070414177351	0.1868390596104975
1.033	0.3927543175841199	0.0213187560449281	0.0182770708578978	0.1521036568782907	0.0448263378745588	0.1859724806676165
1.034	0.3958728888609255	0.0214378325276852	0.0182480152507368	0.1489271280685918	0.0451544354006054	0.1851831685577909
1.035	0.3989372546359303	0.0215595560254837	0.0182196935819925	0.145771043332381	0.0454916610529033	0.1844706288940201
1.036	0.4019451945222835	0.0216838251857119	0.0181920821668943	0.1426363570948517	0.0458383458120219	0.1838342952944117
1.037	0.4048945301330334	0.0218105395309847	0.018165159185915	0.1395240207683154	0.0461948236752677	0.1832735311219621
1.038	0.4077831273964866	0.0219395993557454	0.0181389046680306	0.1364349814797409	0.0465614307617994	0.1827876312991564
1.039	0.4106088988658906	0.0220709056260178	0.0181133004716686	0.1333701807998835	0.0469385044306581	0.1823758241978497
1.04	0.413369806016151	0.0222043598826843	0.0180883302634396	0.1303305534766785	0.0473263824126425	0.1820372736047423
1.041	0.4160638615198859	0.0223398641486721	0.018063979494747	0.1273170261754938	0.0477254019569451	0.1817710807624639
1.042	0.4186891314946039	0.0224773208404121	0.0180402353763607	0.1243305162287456	0.0481358989934794	0.1815762864859425
1.043	0.4212437377124438	0.0226166326839112	0.0180170868510449	0.1213719303972279	0.0485582073117672	0.181451873353352
1.044	0.423725859763605	0.0227577026357821	0.0179945245643138	0.1184421636454078	0.0489926577572064	0.1813967679704641
1.045	0.4261337371645526	0.0229004338095287	0.0179725408333278	0.1155420979329437	0.0494395774454676	0.1814098433067708
1.046	0.4284656714021528	0.0230447294074268	0.017951129613969	0.1126726010246938	0.0498992889956887	0.1814899211012473
1.047	0.4307200279055493	0.0231904926582428	0.0179302864660545	0.1098345253216409	0.0503721097829891	0.1816357743350952
1.048	0.4328952379384326	0.023337626761096	0.0179100085167085	0.1070287067152387	0.0508583512107772	0.1818461297683443
1.049	0.434989800405649	0.0234860348356614	0.0178902944218658	0.1042559634677418	0.0513583180031614	0.1821196705366716
1.05	0.4370022835693134	0.0236356198789499	0.0178711443258902	0.1015170951210208	0.051872307517746	0.1824550388043138
1.051	0.4389313266710647	0.0237862847287777	0.017852559819334	0.0988128814362268	0.0524006090790287	0.1828508384685667
1.052	0.4407756414581678	0.023937932034035	0.0178345438948033	0.0961440813664086	0.0529435033326567	0.1833056379109809
1.053	0.4425340136117882	0.0240904642317853	0.0178171009009663	0.0935114320639552	0.0535012616208431	0.1838179727900696
1.054	0.4442053040760626	0.024243783531156	0.0178002364947048	0.090915647924401	0.054074145379355	0.1843863488701217
1.055	0.4457884502865991	0.0243977919039662	0.0177839575915056	0.0883574196679247	0.0546624055564768	0.1850092448806095
1.056	0.4472824672970839	0.02455239108195	0.0177682723141142	0.0858374134596186	0.0552662820544341	0.1856851154007021
1.057	0.4486864488023963	0.0247074825604242	0.0177531899395618	0.0833562700694896	0.0558860031937623	0.1864123937635933
1.058	0.4499995680560895	0.0248629676082023	0.0177387208445793	0.0809146040730605	0.0565217852012848	0.1871894949756825
1.059	0.4512210786794399	0.0250187472835585	0.0177248764494385	0.0785130030934416	0.0571738317223664	0.1880148186460606
1.06	0.4523503153587434	0.0251747224560652	0.0177116691602338	0.0761520270857292	0.0578423333582536	0.1888867519221644
